<svg width="28" height="28" viewBox="0 0 28 28" fill="none" xmlns="http://www.w3.org/2000/svg">
<rect x="5.8125" y="0.447266" width="15.4255" height="10.9544" fill="#A0B3AB"/>
<rect x="1.70898" y="1.70972" width="4.10295" height="2.90626" fill="#A0B3AB"/>
<rect x="21.1992" y="1.70972" width="4.10295" height="2.90626" fill="#A0B3AB"/>
<path d="M1.70898 9.74463H5.81194L5.70016 12.2958H1.70898V9.74463Z" fill="#A0B3AB"/>
<rect x="21.0273" y="9.74463" width="3.932" height="2.90626" fill="#A0B3AB"/>
<rect x="8.94141" y="12.2959" width="9.16589" height="1.56491" fill="#A0B3AB"/>
<rect x="10.2832" y="12.2959" width="6.48319" height="2.90626" fill="#A0B3AB"/>
<rect x="7.82422" y="10.2839" width="12.0722" height="2.45914" fill="#A0B3AB"/>
<rect x="11.7969" y="12.48" width="3.41913" height="9.74451" fill="#A0B3AB"/>
<rect x="10.7695" y="21.8826" width="5.64156" height="5.4706" fill="#A0B3AB"/>
<rect x="8.20508" y="23.7632" width="5.64156" height="3.41913" fill="#A0B3AB"/>
<rect x="14.1895" y="23.7632" width="5.64156" height="3.41913" fill="#A0B3AB"/>
<rect x="19.4492" y="11.178" width="4.24761" height="1.78847" fill="#A0B3AB"/>
<rect x="0.341797" y="3.59033" width="3.07721" height="7.18017" fill="#A0B3AB"/>
<rect x="23.5918" y="3.59033" width="3.07721" height="7.18017" fill="#A0B3AB"/>
<path d="M8.99303 3.55231V3.05579H11.4756H13.9582V3.55231V4.04882H14.4547H14.9512V5.04184V6.03487H14.4547H13.9582V6.53138V7.0279H13.4616H12.9651V7.52441V8.02092H11.9721H10.9791V8.51744V9.01395H12.9651H14.9512V9.51046V10.007H11.4756H8V9.01395V8.02092H8.49651H8.99303V7.52441V7.0279H9.48954H9.98605V6.53138V6.03487H10.9791H11.9721V5.53836V5.04184H12.4686H12.9651V4.54533V4.04882H11.4756H9.98605V4.54533V5.04184H8.99303H8V4.54533V4.04882H8.49651H8.99303V3.55231Z" fill="white"/>
<path d="M15 3.77018V2.89173H16.0541H17.1083V3.06742V3.24311H17.284H17.4596V3.94586V4.64862H17.1083H16.7569V3.94586V3.24311H16.2298H15.7028V3.94586V4.64862H15.3514H15V3.77018ZM19.4274 2.54035V2.18897H19.7787H20.1301V3.4188V4.64862H19.076H18.0219V4.47293V4.29724H17.8462H17.6705V3.77018V3.24311H17.8462H18.0219V3.06742V2.89173H18.7246H19.4274V2.54035ZM19.4274 3.77018V3.24311H18.9003H18.3732V3.77018V4.29724H18.9003H19.4274V3.77018Z" fill="white"/>
<rect x="5.64062" width="16.4118" height="0.854782" fill="black"/>
<rect x="2.05078" y="1.36768" width="4.44487" height="0.854782" fill="black"/>
<rect x="21.1992" y="1.36768" width="4.44487" height="0.854782" fill="black"/>
<rect x="2.23438" y="12.2957" width="2.90626" height="0.894233" fill="black"/>
<rect x="5.14062" y="11.4014" width="2.01203" height="0.894233" fill="black"/>
<rect x="19.4492" y="12.0723" width="5.3654" height="0.894233" fill="black"/>
<rect x="0.683594" y="2.90625" width="1.53861" height="0.854782" fill="black"/>
<rect x="24.959" y="2.90625" width="1.53861" height="0.854782" fill="black"/>
<rect x="0.683594" y="10.7703" width="1.53861" height="0.854782" fill="black"/>
<rect x="24.959" y="10.7703" width="1.53861" height="0.854782" fill="black"/>
<rect x="9.91602" y="15.0442" width="7.35112" height="0.854782" fill="black"/>
<rect x="7.86328" y="23.592" width="12.3089" height="0.854782" fill="black"/>
<rect x="9.91602" y="21.3696" width="7.35112" height="0.854782" fill="black"/>
<rect x="7.86328" y="26.4983" width="12.3089" height="0.854782" fill="black"/>
<rect x="8.54688" y="13.6765" width="2.22243" height="0.854782" fill="black"/>
<rect x="16.543" y="13.6765" width="2.22243" height="0.854782" fill="black"/>
<rect x="7.00781" y="12.1379" width="2.39339" height="0.854782" fill="black"/>
<rect x="17.9512" y="12.1379" width="2.22243" height="0.854782" fill="black"/>
<rect x="5.64062" y="10.7703" width="2.22243" height="0.854782" fill="black"/>
<rect x="19.6602" y="10.7703" width="2.39339" height="0.854782" fill="black"/>
<rect x="3.41992" y="9.40259" width="2.39339" height="0.854782" fill="black"/>
<rect x="21.1992" y="9.40259" width="2.39339" height="0.854782" fill="black"/>
<rect x="3.41992" y="4.27393" width="2.39339" height="0.854782" fill="black"/>
<rect x="21.1992" y="4.27393" width="2.39339" height="0.854782" fill="black"/>
<rect x="9.91602" y="15.8989" width="2.22243" height="0.854782" transform="rotate(-90 9.91602 15.8989)" fill="black"/>
<rect x="16.4102" y="15.8989" width="2.22243" height="0.854782" transform="rotate(-90 16.4102 15.8989)" fill="black"/>
<rect x="8.54688" y="14.5312" width="2.22243" height="0.854782" transform="rotate(-90 8.54688 14.5312)" fill="black"/>
<rect x="17.9512" y="14.5312" width="2.22243" height="0.854782" transform="rotate(-90 17.9512 14.5312)" fill="black"/>
<rect x="7.00781" y="12.9927" width="2.22243" height="0.854782" transform="rotate(-90 7.00781 12.9927)" fill="black"/>
<rect x="19.3184" y="12.9927" width="2.22243" height="0.854782" transform="rotate(-90 19.3184 12.9927)" fill="black"/>
<rect x="19.3184" y="27.1821" width="3.41913" height="0.854782" transform="rotate(-90 19.3184 27.1821)" fill="black"/>
<rect x="16.4102" y="24.1047" width="1.88052" height="0.854782" transform="rotate(-90 16.4102 24.1047)" fill="black"/>
<rect x="9.91602" y="24.1047" width="1.88052" height="0.854782" transform="rotate(-90 9.91602 24.1047)" fill="black"/>
<rect x="7.86328" y="27.1821" width="3.41913" height="0.854782" transform="rotate(-90 7.86328 27.1821)" fill="black"/>
<rect x="1.36719" y="3.59009" width="2.22243" height="0.854782" transform="rotate(-90 1.36719 3.59009)" fill="black"/>
<rect x="24.959" y="3.59009" width="2.22243" height="0.854782" transform="rotate(-90 24.959 3.59009)" fill="black"/>
<rect x="2.73438" y="9.40259" width="4.27391" height="0.854782" transform="rotate(-90 2.73438 9.40259)" fill="black"/>
<rect x="23.5918" y="9.40259" width="4.27391" height="0.854782" transform="rotate(-90 23.5918 9.40259)" fill="black"/>
<rect x="1.3418" y="12.2957" width="1.34135" height="0.894233" transform="rotate(-90 1.3418 12.2957)" fill="black"/>
<rect x="24.1035" y="12.9927" width="2.22243" height="0.854782" transform="rotate(-90 24.1035 12.9927)" fill="black"/>
<rect y="10.7703" width="7.18017" height="0.854782" transform="rotate(-90 0 10.7703)" fill="black"/>
<rect x="26.498" y="10.7703" width="7.18017" height="0.854782" transform="rotate(-90 26.498 10.7703)" fill="black"/>
<rect x="5.64062" y="11.6252" width="10.9412" height="0.854782" transform="rotate(-90 5.64062 11.6252)" fill="black"/>
<rect x="11.4551" y="22.2244" width="6.49634" height="0.854782" transform="rotate(-90 11.4551 22.2244)" fill="black"/>
<rect x="14.873" y="22.2244" width="6.49634" height="0.854782" transform="rotate(-90 14.873 22.2244)" fill="black"/>
<rect x="21.1992" y="11.6252" width="10.9412" height="0.854782" transform="rotate(-90 21.1992 11.6252)" fill="black"/>
</svg>
