<svg width="34" height="28" viewBox="0 0 34 28" fill="none" xmlns="http://www.w3.org/2000/svg">
<rect x="5.8125" y="0.447266" width="15.4255" height="10.9544" fill="#FF9A42"/>
<rect x="1.70898" y="1.70972" width="4.10295" height="2.90626" fill="#FF9A42"/>
<rect x="21.1992" y="1.70972" width="4.10295" height="2.90626" fill="#FF9A42"/>
<path d="M1.70898 9.74463H5.81194L5.70016 12.2958H1.70898V9.74463Z" fill="#FF9A42"/>
<rect x="21.0273" y="9.74463" width="3.932" height="2.90626" fill="#FF9A42"/>
<rect x="8.94141" y="12.2959" width="9.16589" height="1.56491" fill="#FF9A42"/>
<rect x="10.2832" y="12.2959" width="6.48319" height="2.90626" fill="#FF9A42"/>
<rect x="7.82422" y="10.2839" width="12.0722" height="2.45914" fill="#FF9A42"/>
<rect x="11.7969" y="12.48" width="3.41913" height="9.74451" fill="#FF9A42"/>
<rect x="10.7695" y="21.8826" width="5.64156" height="5.4706" fill="#FF9A42"/>
<rect x="8.20508" y="23.7632" width="5.64156" height="3.41913" fill="#FF9A42"/>
<rect x="14.1895" y="23.7632" width="5.64156" height="3.41913" fill="#FF9A42"/>
<rect x="19.4492" y="11.178" width="4.24761" height="1.78847" fill="#FF9A42"/>
<rect x="0.341797" y="3.59033" width="3.07721" height="7.18017" fill="#FF9A42"/>
<rect x="23.5918" y="3.59033" width="3.07721" height="7.18017" fill="#FF9A42"/>
<path d="M9.45006 3.60382V3.10731H12.4291H15.4082V3.60382V4.10033H14.9117H14.4152V4.59684V5.09336H13.9187H13.4222V5.58987V6.08638H13.9187H14.4152V6.5829V7.07941H14.9117H15.4082V8.07244V9.06546H14.9117H14.4152V9.56197V10.0585H11.9326H9.45006V9.56197V9.06546H8.95354H8.45703V8.56895V8.07244H9.45006H10.4431V8.56895V9.06546H11.9326H13.4222V8.07244V7.07941H11.9326H10.4431V6.5829V6.08638H10.9396H11.4361V5.58987V5.09336H11.9326H12.4291V4.59684V4.10033H10.9396H9.45006V3.60382Z" fill="white"/>
<path d="M14.6639 3.82169V2.94324H15.0153H15.3666V3.11893V3.29462H15.5423H15.718V3.11893V2.94324H16.2451H16.7721V3.11893V3.29462H16.2451H15.718V3.47031V3.646H15.5423H15.3666V4.17307V4.70014H15.0153H14.6639V3.82169ZM18.7399 2.59187V2.24049H19.0912H19.4426V3.47031V4.70014H18.3885H17.3344V4.52445V4.34876H17.1587H16.983V3.82169V3.29462H17.1587H17.3344V3.11893V2.94324H18.0371H18.7399V2.59187ZM18.7399 3.82169V3.29462H18.2128H17.6857V3.82169V4.34876H18.2128H18.7399V3.82169Z" fill="white"/>
<rect x="5.64062" width="16.4118" height="0.854782" fill="black"/>
<rect x="2.05078" y="1.36768" width="4.44487" height="0.854782" fill="black"/>
<rect x="21.1992" y="1.36768" width="4.44487" height="0.854782" fill="black"/>
<rect x="2.23438" y="12.2957" width="2.90626" height="0.894233" fill="black"/>
<rect x="5.14062" y="11.4014" width="2.01203" height="0.894233" fill="black"/>
<rect x="19.4492" y="12.0723" width="5.3654" height="0.894233" fill="black"/>
<rect x="0.683594" y="2.90625" width="1.53861" height="0.854782" fill="black"/>
<rect x="24.959" y="2.90625" width="1.53861" height="0.854782" fill="black"/>
<rect x="0.683594" y="10.7703" width="1.53861" height="0.854782" fill="black"/>
<rect x="24.959" y="10.7703" width="1.53861" height="0.854782" fill="black"/>
<rect x="9.91602" y="15.0442" width="7.35112" height="0.854782" fill="black"/>
<rect x="7.86328" y="23.592" width="12.3089" height="0.854782" fill="black"/>
<rect x="9.91602" y="21.3696" width="7.35112" height="0.854782" fill="black"/>
<rect x="7.86328" y="26.4983" width="12.3089" height="0.854782" fill="black"/>
<rect x="8.54688" y="13.6765" width="2.22243" height="0.854782" fill="black"/>
<rect x="16.543" y="13.6765" width="2.22243" height="0.854782" fill="black"/>
<rect x="7.00781" y="12.1379" width="2.39339" height="0.854782" fill="black"/>
<rect x="17.9512" y="12.1379" width="2.22243" height="0.854782" fill="black"/>
<rect x="5.64062" y="10.7703" width="2.22243" height="0.854782" fill="black"/>
<rect x="19.6602" y="10.7703" width="2.39339" height="0.854782" fill="black"/>
<rect x="3.41992" y="9.40259" width="2.39339" height="0.854782" fill="black"/>
<rect x="21.1992" y="9.40259" width="2.39339" height="0.854782" fill="black"/>
<rect x="3.41992" y="4.27393" width="2.39339" height="0.854782" fill="black"/>
<rect x="21.1992" y="4.27393" width="2.39339" height="0.854782" fill="black"/>
<rect x="9.91602" y="15.8989" width="2.22243" height="0.854782" transform="rotate(-90 9.91602 15.8989)" fill="black"/>
<rect x="16.4102" y="15.8989" width="2.22243" height="0.854782" transform="rotate(-90 16.4102 15.8989)" fill="black"/>
<rect x="8.54688" y="14.5312" width="2.22243" height="0.854782" transform="rotate(-90 8.54688 14.5312)" fill="black"/>
<rect x="17.9512" y="14.5312" width="2.22243" height="0.854782" transform="rotate(-90 17.9512 14.5312)" fill="black"/>
<rect x="7.00781" y="12.9927" width="2.22243" height="0.854782" transform="rotate(-90 7.00781 12.9927)" fill="black"/>
<rect x="19.3184" y="12.9927" width="2.22243" height="0.854782" transform="rotate(-90 19.3184 12.9927)" fill="black"/>
<rect x="19.3184" y="27.1821" width="3.41913" height="0.854782" transform="rotate(-90 19.3184 27.1821)" fill="black"/>
<rect x="16.4102" y="24.1047" width="1.88052" height="0.854782" transform="rotate(-90 16.4102 24.1047)" fill="black"/>
<rect x="9.91602" y="24.1047" width="1.88052" height="0.854782" transform="rotate(-90 9.91602 24.1047)" fill="black"/>
<rect x="7.86328" y="27.1821" width="3.41913" height="0.854782" transform="rotate(-90 7.86328 27.1821)" fill="black"/>
<rect x="1.36719" y="3.59009" width="2.22243" height="0.854782" transform="rotate(-90 1.36719 3.59009)" fill="black"/>
<rect x="24.959" y="3.59009" width="2.22243" height="0.854782" transform="rotate(-90 24.959 3.59009)" fill="black"/>
<rect x="2.73438" y="9.40259" width="4.27391" height="0.854782" transform="rotate(-90 2.73438 9.40259)" fill="black"/>
<rect x="23.5918" y="9.40259" width="4.27391" height="0.854782" transform="rotate(-90 23.5918 9.40259)" fill="black"/>
<rect x="1.3418" y="12.2957" width="1.34135" height="0.894233" transform="rotate(-90 1.3418 12.2957)" fill="black"/>
<rect x="24.1035" y="12.9927" width="2.22243" height="0.854782" transform="rotate(-90 24.1035 12.9927)" fill="black"/>
<rect y="10.7703" width="7.18017" height="0.854782" transform="rotate(-90 0 10.7703)" fill="black"/>
<rect x="26.498" y="10.7703" width="7.18017" height="0.854782" transform="rotate(-90 26.498 10.7703)" fill="black"/>
<rect x="5.64062" y="11.6252" width="10.9412" height="0.854782" transform="rotate(-90 5.64062 11.6252)" fill="black"/>
<rect x="11.4551" y="22.2244" width="6.49634" height="0.854782" transform="rotate(-90 11.4551 22.2244)" fill="black"/>
<rect x="14.873" y="22.2244" width="6.49634" height="0.854782" transform="rotate(-90 14.873 22.2244)" fill="black"/>
<rect x="21.1992" y="11.6252" width="10.9412" height="0.854782" transform="rotate(-90 21.1992 11.6252)" fill="black"/>
</svg>
